<svg width="401" height="351" viewBox="0 0 401 351" fill="none" xmlns="http://www.w3.org/2000/svg">
<path opacity="0.1" d="M24.028 179.835C37.609 199.523 32.3328 228.28 23.7042 251.317C20.8128 259.031 17.548 267.188 18.7518 275.458C20.2414 285.569 28.1575 292.966 36.4699 296.883C51.6204 304.028 69.7537 302.326 83.6775 292.449C95.708 283.914 104.325 270.037 116.561 261.893C137.041 248.264 163.106 253.411 185.342 262.801C201.076 269.442 218.276 278.081 233.906 271.14C244.904 266.254 252.508 254.366 256.653 241.762C258.653 235.681 260.104 229.093 263.925 224.267C266.211 221.4 269.159 219.363 272.196 217.648C299.918 201.977 334.927 210.368 361.853 192.991C380.036 181.264 391.678 159.113 396.832 136.023C401.986 112.934 401.403 88.7242 400.078 64.9487C399.148 48.0488 397.479 30.0109 388.009 16.9678C377.99 3.17331 360.798 -1.96052 345.259 0.662858C329.719 3.28624 315.632 12.6331 303.239 23.6392C287.754 37.3989 273.388 54.529 254.375 60.1233C241.422 63.9194 227.803 61.8606 214.447 61.1223C192.119 59.9191 169.784 62.5946 147.578 65.5177C126.321 68.3192 104.912 71.403 84.6604 79.2861C70.3328 84.8456 58.8509 94.9743 45.3195 102.032C36.5004 106.645 26.8814 107.917 18.5271 113.794C8.24136 121.03 -1.19103 133.617 1.44516 148.345C3.95183 162.361 16.8204 169.385 24.028 179.835Z" fill="#00B0FF"/>
<path d="M73.2971 265.904C73.2971 265.904 72.04 223.444 51.8914 199.451C43.4343 189.383 37.88 176.596 36.4095 162.758C35.7221 156.191 35.564 149.566 35.9371 142.966" stroke="#535461" stroke-width="2" stroke-miterlimit="10"/>
<path d="M23.3161 127.772C24.6952 132.515 36.2228 143.408 36.2228 143.408C36.2228 143.408 39.7542 126.812 38.3752 122.074C37.7129 119.797 36.2845 117.913 34.4041 116.837C32.5237 115.761 30.3455 115.581 28.3485 116.336C26.3516 117.091 24.6995 118.72 23.7557 120.864C22.812 123.008 22.6539 125.491 23.3161 127.768V127.772Z" fill="#00B0FF"/>
<path d="M18.5238 158.737C21.9524 161.864 36.8095 163.871 36.8095 163.871C36.8095 163.871 31.8571 147.752 28.4286 144.629C26.7792 143.247 24.725 142.646 22.6955 142.95C20.666 143.255 18.8184 144.443 17.5392 146.265C16.26 148.087 15.6481 150.402 15.8316 152.726C16.0151 155.051 16.9798 157.204 18.5238 158.737Z" fill="#00B0FF"/>
<path d="M32.1047 203.408C36.4399 204.137 50.1657 197.327 50.1657 197.327C50.1657 197.327 38.7599 186.26 34.4247 185.531C32.3434 185.18 30.2251 185.786 28.5358 187.216C26.8466 188.646 25.7247 190.782 25.4171 193.155C25.1094 195.528 25.6412 197.943 26.8954 199.869C28.1495 201.795 30.0234 203.074 32.1047 203.425V203.408Z" fill="#00B0FF"/>
<path d="M49.0648 234.567C53.2286 236.122 67.7696 232.039 67.7696 232.039C67.7696 232.039 58.1658 218.935 54.002 217.381C52.003 216.632 49.825 216.819 47.9471 217.901C46.0693 218.983 44.6454 220.872 43.9886 223.151C43.3319 225.43 43.4962 227.913 44.4453 230.054C45.3944 232.195 47.0506 233.818 49.0496 234.567H49.0648Z" fill="#00B0FF"/>
<path d="M52.8743 158.81C50.8515 163.24 37.9524 171.918 37.9524 171.918C37.9524 171.918 36.7791 154.896 38.802 150.462C39.2827 149.408 39.9408 148.473 40.7385 147.71C41.5363 146.946 42.4582 146.369 43.4515 146.012C44.4448 145.654 45.4901 145.524 46.5278 145.627C47.5654 145.73 48.5751 146.065 49.4991 146.614C50.4231 147.162 51.2434 147.912 51.9131 148.822C52.5828 149.731 53.0887 150.782 53.4022 151.915C53.7156 153.047 53.8303 154.239 53.7397 155.422C53.6492 156.605 53.3551 157.756 52.8743 158.81Z" fill="#00B0FF"/>
<path d="M72.3067 195.537C69.2133 199.077 54.6305 202.952 54.6305 202.952C54.6305 202.952 57.9791 186.308 61.0686 182.768C61.8037 181.927 62.677 181.259 63.6386 180.802C64.6002 180.346 65.6312 180.11 66.6728 180.107C67.7144 180.105 68.7462 180.337 69.7093 180.789C70.6723 181.242 71.5478 181.906 72.2857 182.744C73.0236 183.582 73.6095 184.578 74.0099 185.674C74.4103 186.771 74.6174 187.946 74.6193 189.134C74.6213 190.321 74.4181 191.498 74.0212 192.596C73.6244 193.694 73.0418 194.692 72.3067 195.533V195.537Z" fill="#00B0FF"/>
<path d="M86.8972 234.189C84.3753 238.272 70.5734 244.904 70.5734 244.904C70.5734 244.904 71.4038 227.857 73.9296 223.769C74.5139 222.756 75.271 221.887 76.1559 221.214C77.0407 220.542 78.0353 220.078 79.0803 219.853C80.1253 219.627 81.1995 219.643 82.2389 219.9C83.2783 220.158 84.2617 220.651 85.1306 221.35C85.9996 222.049 86.7363 222.941 87.2969 223.971C87.8575 225.002 88.2306 226.15 88.394 227.348C88.5574 228.547 88.5077 229.77 88.248 230.946C87.9882 232.122 87.5236 233.226 86.8819 234.193L86.8972 234.189Z" fill="#00B0FF"/>
<path d="M250.356 237.073C250.356 237.073 244.307 234.736 241.396 240.813C240.628 242.46 240.238 244.302 240.26 246.167C240.283 248.033 240.718 249.862 241.526 251.484C243.43 255.424 247.377 260.54 254.859 260.084C261.19 259.697 263.278 254.19 263.857 249.065C264.076 247.143 263.859 245.19 263.226 243.391C262.593 241.593 261.566 240.01 260.243 238.794C258.92 237.578 257.345 236.769 255.669 236.446C253.993 236.123 252.273 236.295 250.672 236.947L250.356 237.073Z" fill="#00B0FF"/>
<path opacity="0.1" d="M242.806 252.031C241.998 250.409 241.563 248.58 241.54 246.715C241.518 244.849 241.908 243.007 242.676 241.36C245.587 235.279 251.636 237.62 251.636 237.62L251.945 237.494C254.251 236.543 256.787 236.608 259.053 237.677C257.802 236.828 256.402 236.305 254.953 236.148C253.503 235.99 252.042 236.201 250.672 236.765L250.364 236.891C250.364 236.891 244.314 234.554 241.404 240.63C240.636 242.278 240.245 244.119 240.268 245.985C240.29 247.85 240.726 249.679 241.533 251.302C242.794 253.908 244.931 256.996 248.39 258.685C246.03 257.092 244.098 254.79 242.806 252.031Z" fill="white"/>
<path opacity="0.2" d="M247.232 239.996C247.232 239.996 249.476 242.007 254.92 239.996H247.232Z" fill="black"/>
<path d="M246.752 225.384C246.752 225.384 250.596 237.255 250.276 240.36L253.324 239.996C253.324 239.996 248.196 229.571 249.48 225.384H246.752Z" fill="#00B0FF"/>
<path opacity="0.2" d="M246.752 225.384C246.752 225.384 250.596 237.255 250.276 240.36L253.324 239.996C253.324 239.996 248.196 229.571 249.48 225.384H246.752Z" fill="black"/>
<path d="M262.444 226.375C262.444 226.375 256.394 222.849 253.682 225.763C250.97 228.677 250.558 236.126 250.558 236.126C250.558 236.126 260.429 237.672 262.444 226.375Z" fill="#00B0FF"/>
<path opacity="0.1" d="M262.444 226.375C262.444 226.375 256.394 222.849 253.682 225.763C250.97 228.677 250.558 236.126 250.558 236.126C250.558 236.126 260.429 237.672 262.444 226.375Z" fill="white"/>
<path d="M250.562 236.126C250.562 236.126 252.15 227.478 262.444 226.375" stroke="#00B0FF" stroke-miterlimit="10"/>
<path d="M76.6686 184.379C76.6686 184.379 77.9029 161.42 68.1239 147.313C63.9886 141.426 61.6399 134.169 61.4305 126.63C61.3568 123.05 61.5711 119.469 62.0705 115.933" stroke="#535461" stroke-width="2" stroke-miterlimit="10"/>
<path d="M55.9562 107.002C56.4857 109.639 62.2076 116.189 62.2076 116.189C62.2076 116.189 64.8743 107.45 64.3295 104.818C64.2044 104.19 63.9722 103.597 63.6461 103.072C63.3199 102.547 62.9063 102.1 62.4287 101.757C61.9511 101.415 61.419 101.182 60.8628 101.074C60.3065 100.966 59.7369 100.983 59.1866 101.126C58.6363 101.268 58.1161 101.533 57.6555 101.905C57.1949 102.277 56.8031 102.748 56.5025 103.293C56.2018 103.837 55.9981 104.444 55.9031 105.078C55.808 105.713 55.8235 106.362 55.9485 106.989L55.9562 107.002Z" fill="#00B0FF"/>
<path d="M51.9714 123.412C53.6743 125.297 61.5981 127.251 61.5981 127.251C61.5981 127.251 59.6591 118.274 57.9562 116.393C57.5517 115.945 57.0738 115.592 56.5498 115.355C56.0257 115.117 55.4657 115 54.9019 115.009C54.338 115.018 53.7812 115.154 53.2634 115.409C52.7456 115.663 52.2768 116.032 51.8838 116.493C51.4909 116.954 51.1814 117.499 50.9731 118.096C50.7649 118.694 50.6619 119.332 50.67 119.975C50.6781 120.618 50.7973 121.253 51.0206 121.843C51.2439 122.434 51.567 122.968 51.9714 123.416V123.412Z" fill="#00B0FF"/>
<path d="M57.2857 148.286C59.5714 148.934 67.2934 146.058 67.2934 146.058C67.2934 146.058 61.6438 139.426 59.3429 138.779C58.7953 138.625 58.2265 138.595 57.669 138.692C57.1114 138.789 56.576 139.009 56.0933 139.342C55.1185 140.014 54.4176 141.099 54.1448 142.36C53.872 143.621 54.0497 144.953 54.6387 146.065C55.2277 147.176 56.1799 147.975 57.2857 148.286Z" fill="#00B0FF"/>
<path d="M65.0228 166.068C67.1981 167.149 75.2171 165.798 75.2171 165.798C75.2171 165.798 70.6457 158.172 68.459 157.112C67.9401 156.839 67.3788 156.688 66.8078 156.666C66.2369 156.644 65.6679 156.752 65.1341 156.984C64.6003 157.216 64.1125 157.567 63.6993 158.017C63.286 158.467 62.9556 159.006 62.7275 159.603C62.4994 160.2 62.378 160.843 62.3706 161.495C62.3632 162.146 62.4698 162.792 62.6843 163.396C62.8988 164 63.2168 164.548 63.6196 165.01C64.0225 165.472 64.5021 165.837 65.0305 166.085L65.0228 166.068Z" fill="#00B0FF"/>
<path d="M70.4896 125.466C69.2019 127.738 61.8572 131.655 61.8572 131.655C61.8572 131.655 61.9905 122.413 63.2819 120.141C63.9013 119.052 64.8749 118.287 65.9887 118.016C67.1025 117.744 68.2652 117.989 69.221 118.695C70.1768 119.401 70.8474 120.511 71.0853 121.781C71.3232 123.051 71.1089 124.376 70.4896 125.466Z" fill="#00B0FF"/>
<path d="M79.3085 146.396C77.4838 148.134 69.4457 149.359 69.4457 149.359C69.4457 149.359 71.9981 140.585 73.8266 138.856C74.7036 138.027 75.8334 137.63 76.9676 137.751C78.1017 137.872 79.1473 138.501 79.8742 139.501C80.6012 140.501 80.95 141.789 80.8439 143.082C80.7378 144.375 80.1855 145.568 79.3085 146.396Z" fill="#00B0FF"/>
<path d="M85.4305 168.083C83.8877 170.138 76.1505 172.904 76.1505 172.904C76.1505 172.904 77.3658 163.783 78.9124 161.711C79.2796 161.223 79.7276 160.822 80.2307 160.531C80.7338 160.24 81.2823 160.065 81.8447 160.016C82.4072 159.967 82.9726 160.045 83.5088 160.245C84.045 160.444 84.5413 160.763 84.9696 161.181C85.3978 161.6 85.7495 162.111 86.0046 162.685C86.2597 163.258 86.4133 163.883 86.4564 164.525C86.4996 165.166 86.4315 165.811 86.2562 166.422C86.0808 167.033 85.8015 167.599 85.4343 168.087L85.4305 168.083Z" fill="#00B0FF"/>
<path opacity="0.5" d="M55.9562 107.002C56.4857 109.639 62.2076 116.189 62.2076 116.189C62.2076 116.189 64.8743 107.45 64.3295 104.818C64.2044 104.19 63.9722 103.597 63.6461 103.072C63.3199 102.547 62.9063 102.1 62.4287 101.757C61.9511 101.415 61.419 101.182 60.8628 101.074C60.3065 100.966 59.7369 100.983 59.1866 101.126C58.6363 101.268 58.1161 101.533 57.6555 101.905C57.1949 102.277 56.8031 102.748 56.5025 103.293C56.2018 103.837 55.9981 104.444 55.9031 105.078C55.808 105.713 55.8235 106.362 55.9485 106.989L55.9562 107.002Z" fill="white"/>
<path opacity="0.5" d="M51.9714 123.412C53.6743 125.297 61.5981 127.251 61.5981 127.251C61.5981 127.251 59.6591 118.274 57.9562 116.393C57.5517 115.945 57.0738 115.592 56.5498 115.355C56.0257 115.117 55.4657 115 54.9019 115.009C54.338 115.018 53.7812 115.154 53.2634 115.409C52.7456 115.663 52.2768 116.032 51.8838 116.493C51.4909 116.954 51.1814 117.499 50.9731 118.096C50.7649 118.694 50.6619 119.332 50.67 119.975C50.6781 120.618 50.7973 121.253 51.0206 121.843C51.2439 122.434 51.567 122.968 51.9714 123.416V123.412Z" fill="white"/>
<path opacity="0.5" d="M57.2857 148.286C59.5714 148.934 67.2934 146.058 67.2934 146.058C67.2934 146.058 61.6438 139.426 59.3429 138.779C58.7953 138.625 58.2265 138.595 57.669 138.692C57.1114 138.789 56.576 139.009 56.0933 139.342C55.1185 140.014 54.4176 141.099 54.1448 142.36C53.872 143.621 54.0497 144.953 54.6387 146.065C55.2277 147.176 56.1799 147.975 57.2857 148.286Z" fill="white"/>
<path opacity="0.5" d="M65.0228 166.068C67.1981 167.149 75.2171 165.798 75.2171 165.798C75.2171 165.798 70.6457 158.172 68.459 157.112C67.9401 156.839 67.3788 156.688 66.8078 156.666C66.2369 156.644 65.6679 156.752 65.1341 156.984C64.6003 157.216 64.1125 157.567 63.6993 158.017C63.286 158.467 62.9556 159.006 62.7275 159.603C62.4994 160.2 62.378 160.843 62.3706 161.495C62.3632 162.146 62.4698 162.792 62.6843 163.396C62.8988 164 63.2168 164.548 63.6196 165.01C64.0225 165.472 64.5021 165.837 65.0305 166.085L65.0228 166.068Z" fill="white"/>
<path opacity="0.5" d="M70.4896 125.466C69.2019 127.738 61.8572 131.655 61.8572 131.655C61.8572 131.655 61.9905 122.413 63.2819 120.141C63.9013 119.052 64.8749 118.287 65.9887 118.016C67.1025 117.744 68.2652 117.989 69.221 118.695C70.1768 119.401 70.8474 120.511 71.0853 121.781C71.3232 123.051 71.1089 124.376 70.4896 125.466Z" fill="white"/>
<path opacity="0.5" d="M79.3085 146.396C77.4838 148.134 69.4457 149.359 69.4457 149.359C69.4457 149.359 71.9981 140.585 73.8266 138.856C74.7036 138.027 75.8334 137.63 76.9676 137.751C78.1017 137.872 79.1473 138.501 79.8742 139.501C80.6012 140.501 80.95 141.789 80.8439 143.082C80.7378 144.375 80.1855 145.568 79.3085 146.396Z" fill="white"/>
<path opacity="0.5" d="M85.4305 168.083C83.8877 170.138 76.1505 172.904 76.1505 172.904C76.1505 172.904 77.3658 163.783 78.9124 161.711C79.2796 161.223 79.7276 160.822 80.2307 160.531C80.7338 160.24 81.2823 160.065 81.8447 160.016C82.4072 159.967 82.9726 160.045 83.5088 160.245C84.045 160.444 84.5413 160.763 84.9696 161.181C85.3978 161.6 85.7495 162.111 86.0046 162.685C86.2597 163.258 86.4133 163.883 86.4564 164.525C86.4996 165.166 86.4315 165.811 86.2562 166.422C86.0808 167.033 85.8015 167.599 85.4343 168.087L85.4305 168.083Z" fill="white"/>
<path d="M193.19 8.85614V16.3918V158.25H385.541V16.3918V8.85614H193.19Z" fill="url(#paint0_linear_145_2)"/>
<path d="M383.503 15.6317H196.044V155.544H383.503V15.6317Z" fill="white"/>
<path d="M383.503 8.9776H196.044V19.2713H383.503V8.9776Z" fill="#EEEEEE"/>
<path d="M203.175 16.4658C204.385 16.4658 205.366 15.3476 205.366 13.9683C205.366 12.589 204.385 11.4709 203.175 11.4709C201.965 11.4709 200.985 12.589 200.985 13.9683C200.985 15.3476 201.965 16.4658 203.175 16.4658Z" fill="#FF5252"/>
<path d="M209.198 16.4658C210.408 16.4658 211.389 15.3476 211.389 13.9683C211.389 12.589 210.408 11.4709 209.198 11.4709C207.988 11.4709 207.008 12.589 207.008 13.9683C207.008 15.3476 207.988 16.4658 209.198 16.4658Z" fill="#FFFF00"/>
<path d="M215.217 16.4658C216.427 16.4658 217.408 15.3476 217.408 13.9683C217.408 12.589 216.427 11.4709 215.217 11.4709C214.007 11.4709 213.027 12.589 213.027 13.9683C213.027 15.3476 214.007 16.4658 215.217 16.4658Z" fill="#69F0AE"/>
<path opacity="0.5" d="M273.084 35.7586H203.229V39.0769H273.084V35.7586Z" fill="#00B0FF"/>
<path opacity="0.5" d="M273.084 42.3956H203.229V45.7139H273.084V42.3956Z" fill="#00B0FF"/>
<path opacity="0.5" d="M273.084 49.0319H203.229V52.3502H273.084V49.0319Z" fill="#00B0FF"/>
<path opacity="0.5" d="M273.08 55.6689H227.305V58.9872H273.08V55.6689Z" fill="#00B0FF"/>
<path opacity="0.5" d="M240.009 62.3095H203.229V65.6278H240.009V62.3095Z" fill="#00B0FF"/>
<path opacity="0.5" d="M251.385 68.9459H223.072V72.2642H251.385V68.9459Z" fill="#00B0FF"/>
<path opacity="0.5" d="M364.638 58.991H282.345V112.992H364.638V58.991Z" fill="#00B0FF"/>
<path d="M374.429 64.1168H292.135V118.118H374.429V64.1168Z" fill="#EEEEEE"/>
<path d="M338.177 118.104H292.135V108.228C303.385 102.234 320.691 98.8677 338.177 118.104Z" fill="#00B0FF"/>
<g opacity="0.1">
<path opacity="0.1" d="M373.899 116.705V118.104H316.478V117.804C316.478 117.804 344.733 86.4538 373.899 116.705Z" fill="black"/>
</g>
<path d="M374.429 116.705V118.104H317.008V117.804C317.008 117.804 345.263 86.4538 374.429 116.705Z" fill="#00B0FF"/>
<path d="M301.663 78.5968C304 78.5968 305.895 76.4364 305.895 73.7713C305.895 71.1063 304 68.9459 301.663 68.9459C299.325 68.9459 297.43 71.1063 297.43 73.7713C297.43 76.4364 299.325 78.5968 301.663 78.5968Z" fill="#00B0FF"/>
<path d="M337.705 70.114C337.221 70.114 336.68 70.114 336.314 70.1488C336.149 70.1592 335.986 70.1973 335.831 70.2617L333.339 71.2824C335.351 71.3389 337.45 71.3215 339.507 71.2824L351.065 71.1825C352.242 71.1825 353.484 71.1608 354.467 71.0783C355.126 71.0261 355.61 70.9436 356.215 70.8828C358.402 70.6613 361.594 70.7047 364.444 70.7134C367.293 70.7221 370.733 70.6396 371.735 70.3138H365.621C364.962 70.3138 364.269 70.3138 363.686 70.2748C363.004 70.2313 362.589 70.1445 361.991 70.0836C361 69.9881 359.636 69.9751 358.364 69.9707C351.4 69.9664 344.516 70.1575 337.705 70.114Z" fill="#F4F4F4"/>
<path d="M344.566 75.9734C344.459 75.9734 344.345 75.9734 344.265 75.9734C344.23 75.9767 344.195 75.9854 344.162 75.9995L343.621 76.221C344.055 76.221 344.512 76.221 344.958 76.221L347.461 76.1993C347.716 76.1993 347.983 76.1993 348.196 76.1776L348.577 76.1341C349.05 76.0864 349.743 76.0951 350.36 76.0994C350.888 76.1195 351.417 76.0905 351.941 76.0125H350.615C350.471 76.0125 350.322 76.0125 350.196 76.0125C350.071 76.0125 349.96 75.9821 349.815 75.9734C349.602 75.9734 349.305 75.9517 349.031 75.9474C347.53 75.9387 346.04 75.9734 344.566 75.9734Z" fill="#F4F4F4"/>
<path d="M326.836 84.4172C326.73 84.4172 326.615 84.4172 326.535 84.4172C326.5 84.4204 326.465 84.4292 326.432 84.4433L325.891 84.6648C326.326 84.6648 326.783 84.6648 327.229 84.6648L329.731 84.6431C329.987 84.6431 330.253 84.6431 330.467 84.6213L330.848 84.5779C331.32 84.5301 332.013 84.5388 332.63 84.5432C333.159 84.5633 333.687 84.5342 334.211 84.4563H332.886C332.741 84.4563 332.592 84.4563 332.467 84.4563C332.341 84.4563 332.23 84.4259 332.086 84.4172C331.872 84.4172 331.575 84.3955 331.301 84.3911C329.804 84.3868 328.311 84.4259 326.836 84.4172Z" fill="#F4F4F4"/>
<path d="M316.878 115.441H314.905C314.905 115.441 314.284 90.6321 316.893 82.9748H317.392C317.392 82.9748 315.636 111.05 316.878 115.441Z" fill="#00B0FF"/>
<path d="M315.511 81.7029C315.511 81.7029 313.895 86.8064 314.642 89.0866C314.642 89.0866 315.762 84.4088 317.069 83.7009C318.375 82.9929 319.735 89.0866 319.735 89.0866C319.735 89.0866 320.497 85.2601 319.114 82.1373C320.864 83.318 322.286 85.0371 323.217 87.0974C323.217 87.0974 323.465 84.9691 320.234 80.5824C320.234 80.5824 323.095 81.451 324.958 83.4186C324.958 83.4186 325.579 81.8593 321.724 79.3054C321.724 79.3054 322.223 77.4638 325.206 78.3151C325.206 78.3151 325.206 75.9046 320.482 76.3302C320.482 76.3302 320.482 74.771 323.591 75.0533C323.591 75.0533 323.591 73.0684 319.983 73.7763C319.983 73.7763 320.745 72.4994 321.225 72.2171C320.603 72.1519 319.981 72.3549 319.484 72.7861C319.484 72.7861 319.61 70.2322 317.743 69.2419L317.495 72.7861C317.495 72.7861 315.404 69.9759 315.88 70.5188C316.18 71.3733 316.31 72.293 316.261 73.2117C316.261 73.2117 314.147 71.2268 311.537 73.355C311.537 73.355 314.771 73.6373 315.267 74.9143C315.267 74.9143 312.531 74.3453 311.911 74.771C311.911 74.771 314.025 75.6396 313.899 76.1869C313.899 76.1869 310.17 76.1869 309.671 77.7462C309.671 77.7462 313.526 78.3151 313.773 78.7364C313.773 78.7364 309.297 82.4239 309.05 83.4142C309.05 83.4142 313.651 80.2957 314.383 80.2957C315.114 80.2957 311.027 84.8345 311.274 85.9681C311.286 85.9638 314.642 81.4163 315.511 81.7029Z" fill="#00B0FF"/>
<path d="M341.423 114.517H342.947C342.947 114.517 343.423 95.5623 341.423 89.7119H341.042C341.042 89.7119 342.371 111.155 341.423 114.517Z" fill="#00B0FF"/>
<path d="M342.467 88.7341C342.467 88.7341 343.701 92.6431 343.133 94.3805C343.133 94.3805 342.28 90.8059 341.282 90.263C340.284 89.7201 339.24 94.3805 339.24 94.3805C339.24 94.3805 338.669 91.4574 339.716 89.0729C338.379 89.9754 337.292 91.2896 336.581 92.8647C336.581 92.8647 336.39 91.2402 338.867 87.8828C338.867 87.8828 336.68 88.5343 335.255 90.0545C335.255 90.0545 334.779 88.8644 337.724 86.9143C337.724 86.9143 337.343 85.507 335.057 86.1542C335.057 86.1542 335.057 84.3126 338.669 84.6384C338.669 84.6384 338.669 83.4483 336.295 83.6655C336.295 83.6655 336.295 82.1496 339.05 82.6925C338.795 82.2376 338.474 81.8352 338.101 81.5025C338.576 81.4522 339.051 81.6072 339.43 81.9368C339.43 81.9368 339.335 79.9866 340.76 79.2309L340.95 81.9368C340.95 81.9368 342.547 79.7912 342.185 80.1995C341.957 80.8531 341.859 81.5563 341.899 82.2582C341.899 82.2582 343.514 80.7424 345.51 82.3668C345.51 82.3668 343.042 82.584 342.661 83.5569C342.661 83.5569 344.752 83.1225 345.225 83.4483C345.225 83.4483 343.61 84.0998 343.701 84.5298C343.701 84.5298 346.55 84.5298 346.931 85.7199C346.931 85.7199 343.987 86.1542 343.796 86.4799C343.796 86.4799 347.225 89.2944 347.408 90.0545C347.408 90.0545 343.891 87.67 343.324 87.67C342.756 87.67 345.888 91.1447 345.697 92.0134C345.697 91.9829 343.133 88.517 342.467 88.7341Z" fill="#00B0FF"/>
<path d="M359.609 110.812H360.55C360.55 110.812 360.844 99.0845 359.609 95.4492H359.373C359.373 95.4492 360.196 108.731 359.609 110.812Z" fill="#00B0FF"/>
<path d="M360.238 94.8456C360.238 94.8456 361 97.2605 360.649 98.3202C360.649 98.3202 360.12 96.1051 359.507 95.7707C358.893 95.4363 358.242 98.3202 358.242 98.3202C358.047 97.2156 358.15 96.0697 358.535 95.0323C357.707 95.5915 357.033 96.406 356.592 97.3821C356.592 97.3821 356.474 96.3744 358.006 94.2983C357.185 94.5586 356.422 95.0162 355.769 95.6404C355.769 95.6404 355.476 94.902 357.293 93.6946C357.293 93.6946 357.057 92.8259 355.648 93.2255C355.648 93.2255 355.648 92.0832 357.884 92.2873C357.884 92.2873 357.884 91.549 356.413 91.6836C356.413 91.6836 356.413 90.7454 358.12 91.0799C357.963 90.7976 357.764 90.5479 357.533 90.3415C357.827 90.3112 358.121 90.4072 358.356 90.6108C358.342 90.2716 358.412 89.9346 358.557 89.6383C358.703 89.3419 358.918 89.098 359.179 88.9343L359.297 90.6108C359.297 90.6108 360.288 89.2817 360.059 89.538C359.919 89.9422 359.859 90.3768 359.884 90.8106C360.21 90.5384 360.607 90.3972 361.012 90.409C361.416 90.4208 361.806 90.5849 362.12 90.8757C362.12 90.8757 360.596 91.0104 360.356 91.6141C360.356 91.6141 361.651 91.3448 361.945 91.549C361.945 91.549 360.943 91.9529 361.004 92.2178C361.004 92.2178 362.768 92.2178 363.004 92.9562C363.004 92.9562 361.179 93.2255 361.061 93.4253C361.061 93.4253 363.179 95.1626 363.297 95.6404C363.297 95.6404 361.122 94.1637 360.768 94.1637C360.413 94.1637 362.356 96.3093 362.238 96.8478C362.257 96.8565 360.669 94.7109 360.238 94.8456Z" fill="#00B0FF"/>
<path d="M325.19 97.5385L324.992 96.331C324.992 96.2424 324.976 96.1548 324.945 96.0734C324.915 95.9921 324.87 95.9186 324.813 95.8576L323.895 95.3451C323.827 95.2511 323.772 95.1456 323.731 95.0324V95.0063C323.783 94.9338 323.819 94.8492 323.838 94.7587C323.84 94.7356 323.84 94.7124 323.838 94.6893C323.925 94.7032 324.013 94.6785 324.084 94.6202C324.155 94.5619 324.203 94.4746 324.219 94.3765V94.3505C324.201 94.4301 324.162 94.5012 324.106 94.5535C324.051 94.6058 323.982 94.6366 323.91 94.6415C324.036 94.5456 324.139 94.4165 324.212 94.2652C324.284 94.114 324.323 93.9451 324.326 93.7728C324.326 93.7728 324.326 93.7424 324.326 93.7294C324.366 93.7009 324.401 93.663 324.428 93.6181C324.455 93.5732 324.473 93.5223 324.482 93.4688V93.4427C324.471 93.4939 324.45 93.5418 324.422 93.5836C324.394 93.6255 324.358 93.6603 324.318 93.6859C324.311 93.5864 324.292 93.4884 324.261 93.3949H324.284C324.374 93.3949 324.46 93.3542 324.524 93.2817C324.587 93.2092 324.623 93.1109 324.623 93.0084C324.623 93.0084 324.623 93.0084 324.623 92.9823C324.617 93.0803 324.579 93.172 324.516 93.239C324.453 93.3059 324.37 93.343 324.284 93.3428H324.242C324.342 93.3063 324.43 93.2384 324.498 93.147C324.565 93.0556 324.608 92.9443 324.623 92.826C324.623 92.826 324.623 92.826 324.623 92.7999C324.618 92.8756 324.595 92.9481 324.554 93.0084C324.561 92.9579 324.558 92.9065 324.548 92.857C324.537 92.8075 324.517 92.761 324.491 92.72C324.464 92.6791 324.43 92.6446 324.392 92.6184C324.353 92.5922 324.311 92.575 324.267 92.5675C324.222 92.5601 324.177 92.5627 324.134 92.5752C324.09 92.5877 324.05 92.6097 324.014 92.6402C323.978 92.6707 323.948 92.7089 323.925 92.7527C323.902 92.7965 323.886 92.845 323.88 92.8955L323.819 92.8564C323.838 92.7784 323.878 92.7092 323.933 92.6586C323.989 92.6079 324.057 92.5784 324.128 92.5741H324.105C324.033 92.5724 323.963 92.5967 323.904 92.6435C323.845 92.6903 323.8 92.7573 323.777 92.8347C323.572 92.7261 323.34 92.7055 323.123 92.7765C322.906 92.8475 322.719 93.0054 322.596 93.2212C322.524 93.282 322.432 93.3689 322.436 93.4427C322.406 93.4773 322.38 93.5151 322.356 93.5557C322.256 93.8069 322.219 94.0852 322.25 94.3592C322.263 94.4954 322.248 94.6334 322.205 94.7617C322.163 94.8901 322.095 95.0051 322.006 95.0975C322.045 95.1166 322.088 95.1265 322.131 95.1265C322.175 95.1265 322.217 95.1166 322.257 95.0975C322.336 95.0598 322.411 95.0102 322.478 94.9499C322.54 94.9073 322.594 94.8494 322.634 94.7805C322.679 94.8135 322.726 94.8411 322.775 94.863C322.794 95.0454 322.798 95.2539 322.729 95.319V95.2843C322.558 95.4322 322.345 95.5019 322.131 95.4797C322.005 95.488 321.882 95.532 321.775 95.6078C321.667 95.6837 321.577 95.7889 321.514 95.9141L321.229 97.3083V97.33V97.3517C321.232 97.3708 321.241 97.3882 321.253 97.402C321.265 97.4158 321.28 97.4255 321.297 97.4299L321.385 97.4559C321.414 97.6777 321.413 97.9035 321.381 98.1248C321.321 98.4625 321.286 98.8054 321.278 99.1498C321.301 99.3236 321.339 100.218 321.354 100.644C321.323 100.787 321.297 100.932 321.278 101.078L320.851 103.993C320.851 103.993 320.535 106.325 320.55 107.033L320.493 107.441C320.493 107.441 319.629 108.679 319.884 108.853C320.139 109.027 320.528 109.105 320.901 108.445C320.951 108.289 321.032 108.15 321.137 108.036C321.179 107.995 321.211 107.942 321.232 107.883C321.253 107.824 321.261 107.761 321.255 107.698L321.229 107.411H321.274H321.301C321.536 106.531 321.664 105.62 321.682 104.701C321.682 104.701 322.47 101.495 323.072 100.991L323.129 100.961L323.259 104.062L323.129 107.485L323.103 107.689C323.103 107.689 322.238 108.927 322.493 109.1C322.749 109.274 323.137 109.352 323.51 108.692C323.56 108.537 323.641 108.397 323.747 108.284C323.788 108.242 323.821 108.19 323.842 108.131C323.862 108.072 323.87 108.008 323.865 107.945L323.827 107.511C323.975 106.937 324.36 105.274 324.208 104.314L324.47 102.268C324.737 101.93 324.699 101.065 324.699 101.065C324.909 100.57 324.954 98.6156 324.954 98.6156L325.008 97.6514H325.126H325.168L325.187 97.6253V97.6036L325.19 97.5385ZM324.451 99.4973C324.429 99.4322 324.402 99.3627 324.371 99.2975H324.349V99.2715V99.2497V99.2237C324.361 99.1912 324.371 99.1578 324.379 99.1238C324.413 99.0613 324.43 98.9888 324.429 98.9153C324.466 99.1061 324.479 99.3022 324.467 99.4973H324.451ZM324.371 98.6721L324.318 98.0249V97.9728L324.39 98.7937L324.371 98.6721ZM321.861 98.7589C321.843 98.7827 321.83 98.8105 321.822 98.8404C321.814 98.8703 321.812 98.9017 321.815 98.9327C321.815 98.9987 321.823 99.0644 321.838 99.1281L321.754 99.5321V98.7589C321.808 98.6771 321.855 98.5898 321.895 98.4983C321.914 98.5849 321.908 98.6759 321.88 98.7589H321.861Z" fill="url(#paint1_linear_145_2)"/>
<path d="M322.413 93.7813C322.316 94.0231 322.281 94.2908 322.31 94.5544C322.324 94.6861 322.31 94.8197 322.269 94.9437C322.228 95.0678 322.161 95.1786 322.074 95.2668C322.112 95.2848 322.153 95.2941 322.194 95.2941C322.235 95.2941 322.276 95.2848 322.314 95.2668C322.391 95.2301 322.462 95.1819 322.528 95.1234C322.587 95.0816 322.638 95.0253 322.676 94.9584C322.713 94.8537 322.725 94.7398 322.71 94.6283C322.711 94.4317 322.726 94.2356 322.756 94.0419C322.756 93.9203 322.874 93.6076 322.756 93.5294C322.638 93.4512 322.467 93.6858 322.413 93.7813Z" fill="#72351C"/>
<path d="M320.665 106.599L320.585 107.194C320.585 107.194 319.75 108.388 319.998 108.554C320.246 108.719 320.619 108.797 320.977 108.163C321.026 108.014 321.104 107.88 321.206 107.772C321.246 107.732 321.277 107.681 321.297 107.624C321.317 107.568 321.325 107.507 321.32 107.446L321.24 106.525L320.665 106.599Z" fill="#333333"/>
<path d="M323.175 106.838L323.095 107.433C323.095 107.433 322.261 108.627 322.509 108.792C322.756 108.957 323.13 109.035 323.488 108.401C323.536 108.253 323.614 108.119 323.716 108.01C323.756 107.97 323.788 107.92 323.808 107.863C323.827 107.807 323.835 107.745 323.83 107.685L323.75 106.764L323.175 106.838Z" fill="#333333"/>
<path d="M321.876 99.6233C321.876 99.6233 321.495 99.9447 321.339 101.07L320.928 103.875C320.779 104.881 320.685 105.897 320.646 106.916L321.339 107.185C321.57 106.34 321.698 105.463 321.72 104.579C321.72 104.579 322.554 101.196 323.137 100.957L323.259 103.945L323.13 107.315L323.724 107.45C323.724 107.45 324.326 105.309 324.135 104.175L324.444 101.765C324.643 100.97 324.595 100.121 324.307 99.3627L321.876 99.6233Z" fill="#4D8AF0"/>
<g opacity="0.1">
<path opacity="0.1" d="M323.069 101V100.948C322.486 101.187 321.651 104.57 321.651 104.57C321.637 105.445 321.516 106.313 321.293 107.15L321.37 107.181C321.6 106.336 321.728 105.459 321.75 104.575C321.75 104.575 322.49 101.486 323.069 101Z" fill="black"/>
<path opacity="0.1" d="M324.318 99.3542H324.238C324.523 100.111 324.57 100.956 324.371 101.747L324.063 104.158C324.246 105.231 323.712 107.198 323.659 107.415H323.735C323.735 107.415 324.337 105.274 324.147 104.141L324.455 101.73C324.649 100.943 324.601 100.105 324.318 99.3542Z" fill="black"/>
</g>
<path d="M321.343 97.4252C321.342 97.4484 321.349 97.471 321.361 97.4892C321.374 97.5074 321.392 97.5201 321.411 97.5251C321.603 97.5766 321.782 97.6744 321.937 97.8118C322.23 98.0724 321.629 97.2906 321.629 97.2906L321.427 97.3427L321.343 97.4252Z" fill="#F55F44"/>
<path opacity="0.1" d="M321.343 97.4252C321.342 97.4484 321.349 97.471 321.361 97.4892C321.374 97.5074 321.392 97.5201 321.411 97.5251C321.603 97.5766 321.782 97.6744 321.937 97.8118C322.23 98.0724 321.629 97.2906 321.629 97.2906L321.427 97.3427L321.343 97.4252Z" fill="black"/>
<path d="M324.208 98.1246C324.452 97.9249 324.736 97.7967 325.034 97.7511C325.055 97.7511 325.074 97.7419 325.088 97.7256C325.102 97.7093 325.111 97.6873 325.111 97.6642C325.025 97.6199 324.933 97.5968 324.839 97.5964C324.746 97.596 324.653 97.6184 324.568 97.6619C324.482 97.7055 324.406 97.7692 324.344 97.849C324.282 97.9288 324.235 98.0227 324.208 98.1246Z" fill="#F55F44"/>
<path opacity="0.1" d="M325.111 97.6514C325.025 97.6071 324.933 97.584 324.839 97.5836C324.746 97.5832 324.653 97.6055 324.568 97.6491C324.482 97.6926 324.406 97.7564 324.344 97.8362C324.282 97.916 324.235 98.01 324.208 98.1118C324.208 98.1118 324.718 97.6774 325.072 97.7382" fill="black"/>
<path d="M323.404 95.0458C323.902 95.0458 324.307 94.5849 324.307 94.0164C324.307 93.4479 323.902 92.987 323.404 92.987C322.905 92.987 322.501 93.4479 322.501 94.0164C322.501 94.5849 322.905 95.0458 323.404 95.0458Z" fill="#72351C"/>
<path d="M322.779 94.7373C322.779 94.7373 322.909 95.341 322.779 95.4669C322.649 95.5929 322.398 95.8188 322.589 95.9968C322.779 96.1749 323.472 96.4746 323.701 96.3313C323.93 96.1879 324.192 96.227 324.131 95.9273C324.07 95.6276 323.568 95.6885 323.556 94.19L322.779 94.7373Z" fill="#FDB797"/>
<path opacity="0.1" d="M321.503 97.2564C321.522 97.5834 321.505 97.9119 321.45 98.2336C321.392 98.5584 321.358 98.8883 321.35 99.2196C321.377 99.4367 321.434 100.874 321.434 100.874C321.434 100.874 321.335 102.134 321.872 102.017C322.41 101.899 321.789 100.583 321.789 100.583L321.815 98.846C321.964 98.6217 322.059 98.3566 322.09 98.0773C322.112 97.6907 321.503 97.2564 321.503 97.2564Z" fill="black"/>
<path d="M321.491 97.2564C321.511 97.5834 321.493 97.9119 321.438 98.2336C321.38 98.5584 321.347 98.8883 321.339 99.2196C321.366 99.4367 321.423 100.874 321.423 100.874C321.423 100.874 321.324 102.134 321.861 102.017C322.398 101.899 321.777 100.583 321.777 100.583L321.804 98.846C321.953 98.6217 322.048 98.3566 322.078 98.0773C322.105 97.6907 321.491 97.2564 321.491 97.2564Z" fill="#FDB797"/>
<path opacity="0.1" d="M324.931 97.3388L324.859 98.6809C324.859 98.6809 324.813 100.562 324.611 101.039C324.611 101.039 324.665 102.342 324.128 102.342C323.591 102.342 324.219 100.896 324.219 100.896C324.219 100.896 324.509 99.4279 324.36 98.9589L324.219 97.3475L324.931 97.3388Z" fill="black"/>
<path d="M324.939 97.3388L324.867 98.6809C324.867 98.6809 324.821 100.562 324.619 101.039C324.619 101.039 324.672 102.342 324.135 102.342C323.598 102.342 324.227 100.896 324.227 100.896C324.227 100.896 324.516 99.4279 324.368 98.9589L324.227 97.3475L324.939 97.3388Z" fill="#FDB797"/>
<path opacity="0.1" d="M323.191 96.0357C323.191 96.0357 323.625 96.2659 323.865 95.6013L324.752 96.0965C324.807 96.1553 324.85 96.226 324.879 96.3044C324.909 96.3828 324.924 96.4672 324.924 96.5525L325.114 97.7165C325.034 97.6804 324.947 97.663 324.861 97.6653C324.774 97.6676 324.689 97.6896 324.61 97.7301C324.53 97.7705 324.459 97.8286 324.4 97.9009C324.341 97.9731 324.295 98.0581 324.265 98.1509L324.318 98.8067C324.361 98.9687 324.352 99.1429 324.292 99.2975C324.286 99.3112 324.284 99.326 324.284 99.341C324.284 99.3559 324.286 99.3707 324.292 99.3844C324.307 99.4322 324.313 99.4837 324.308 99.5345C324.302 99.5853 324.287 99.6339 324.262 99.6764C324.237 99.7188 324.203 99.7539 324.164 99.7787C324.125 99.8034 324.081 99.8172 324.036 99.8187C323.798 99.821 323.56 99.8413 323.324 99.8795C323.133 99.9403 322.562 99.7536 322.368 99.8795C322.173 100.005 321.773 99.784 321.773 99.784L321.884 99.2541C321.884 99.2541 321.811 98.9935 321.884 98.9023C321.953 98.5261 321.938 98.136 321.838 97.7687C321.838 97.7687 321.511 97.4169 321.32 97.4777L321.594 96.1356C321.652 96.0108 321.737 95.9052 321.841 95.8291C321.945 95.753 322.065 95.709 322.189 95.7012C322.394 95.7226 322.599 95.656 322.764 95.5145C322.764 95.5145 322.551 95.9531 323.191 96.0357Z" fill="black"/>
<path opacity="0.1" d="M323.236 96.0136C323.354 96.0483 323.674 96.0918 323.865 95.5445L324.752 96.0396C324.806 96.0985 324.85 96.1692 324.879 96.2476C324.909 96.326 324.924 96.4104 324.924 96.4957L325.114 97.6597C325.034 97.6235 324.947 97.6061 324.861 97.6084C324.774 97.6108 324.689 97.6328 324.609 97.6732C324.53 97.7137 324.459 97.7717 324.4 97.844C324.341 97.9163 324.295 98.0013 324.265 98.094L324.318 98.7499L324.352 98.8802C324.368 98.9354 324.372 98.9941 324.364 99.0515C324.356 99.1088 324.336 99.1632 324.307 99.2103C324.297 99.2286 324.292 99.2496 324.292 99.2711C324.292 99.2925 324.297 99.3135 324.307 99.3319C324.322 99.3797 324.328 99.4312 324.323 99.482C324.318 99.5327 324.302 99.5814 324.277 99.6239C324.252 99.6663 324.218 99.7014 324.179 99.7262C324.14 99.7509 324.096 99.7646 324.051 99.7662C323.813 99.7685 323.575 99.7888 323.339 99.827C323.149 99.8878 322.577 99.7011 322.383 99.827C322.189 99.953 321.789 99.7315 321.789 99.7315L321.899 99.2016C321.899 99.2016 321.827 98.941 321.899 98.8498C321.968 98.4736 321.953 98.0835 321.853 97.7162C321.853 97.7162 321.526 97.3644 321.335 97.4252L321.609 96.0831C321.667 95.9583 321.752 95.8527 321.856 95.7766C321.961 95.7005 322.08 95.6564 322.204 95.6487C322.409 95.6701 322.614 95.6035 322.779 95.462C322.779 95.462 322.566 95.8963 323.129 96.0049L323.236 96.0136Z" fill="black"/>
<path d="M323.236 96.0356C323.354 96.0704 323.674 96.1138 323.865 95.5665L324.752 96.0617C324.807 96.1205 324.85 96.1913 324.879 96.2697C324.909 96.3481 324.924 96.4325 324.924 96.5177L325.114 97.6818C325.034 97.6456 324.947 97.6282 324.861 97.6305C324.774 97.6328 324.689 97.6549 324.61 97.6953C324.53 97.7358 324.459 97.7938 324.4 97.8661C324.341 97.9384 324.295 98.0234 324.265 98.1161L324.318 98.772C324.361 98.9339 324.352 99.1082 324.292 99.2628C324.286 99.2765 324.284 99.2913 324.284 99.3062C324.284 99.3212 324.286 99.336 324.292 99.3497C324.307 99.3975 324.313 99.449 324.308 99.4997C324.302 99.5505 324.287 99.5992 324.262 99.6416C324.237 99.6841 324.203 99.7192 324.164 99.7439C324.125 99.7687 324.081 99.7824 324.036 99.784C323.798 99.7862 323.56 99.8066 323.324 99.8448C323.133 99.9056 322.562 99.7188 322.368 99.8448C322.173 99.9708 321.773 99.7492 321.773 99.7492L321.884 99.2193C321.884 99.2193 321.811 98.9587 321.884 98.8675C321.953 98.4914 321.938 98.1012 321.838 97.7339C321.838 97.7339 321.511 97.3821 321.32 97.4429L321.594 96.1008C321.652 95.976 321.737 95.8705 321.841 95.7943C321.945 95.7182 322.065 95.6742 322.189 95.6664C322.394 95.6878 322.599 95.6212 322.764 95.4797C322.764 95.4797 322.551 95.914 323.114 96.0226L323.236 96.0356Z" fill="#F55F44"/>
<path opacity="0.1" d="M323.571 94.2376L322.81 94.7892C322.829 94.8838 322.844 94.9795 322.855 95.0758C322.944 95.1157 323.038 95.1363 323.133 95.1366C323.323 95.1225 323.502 95.0298 323.636 94.876C323.597 94.666 323.575 94.4523 323.571 94.2376Z" fill="black"/>
<path d="M323.103 95.084C323.515 95.084 323.85 94.7029 323.85 94.2327C323.85 93.7625 323.515 93.3813 323.103 93.3813C322.691 93.3813 322.356 93.7625 322.356 94.2327C322.356 94.7029 322.691 95.084 323.103 95.084Z" fill="#FDB797"/>
<path d="M324.208 93.5777C324.389 93.5777 324.535 93.4105 324.535 93.2042C324.535 92.9979 324.389 92.8307 324.208 92.8307C324.027 92.8307 323.88 92.9979 323.88 93.2042C323.88 93.4105 324.027 93.5777 324.208 93.5777Z" fill="#72351C"/>
<path d="M324.269 93.5988C324.185 93.599 324.105 93.5633 324.045 93.4988C323.984 93.4342 323.947 93.3458 323.941 93.2513C323.941 93.2513 323.941 93.2513 323.941 93.2773C323.941 93.3764 323.975 93.4715 324.037 93.5415C324.098 93.6116 324.182 93.651 324.269 93.651C324.355 93.651 324.439 93.6116 324.5 93.5415C324.562 93.4715 324.596 93.3764 324.596 93.2773C324.596 93.2773 324.596 93.2773 324.596 93.2513C324.59 93.3458 324.553 93.4342 324.492 93.4988C324.432 93.5633 324.352 93.599 324.269 93.5988Z" fill="#72351C"/>
<path d="M324.082 93.9726C324 93.9556 323.928 93.904 323.878 93.8283C323.829 93.7526 323.806 93.6583 323.815 93.5644V93.5904C323.799 93.6883 323.819 93.7893 323.868 93.8712C323.918 93.953 323.994 94.009 324.08 94.0269C324.166 94.0447 324.254 94.023 324.326 93.9664C324.398 93.9098 324.447 93.823 324.463 93.7251V93.699C324.442 93.7915 324.391 93.8713 324.32 93.9222C324.249 93.9731 324.164 93.9911 324.082 93.9726Z" fill="#72351C"/>
<path d="M323.827 94.8674C323.745 94.8504 323.672 94.7988 323.623 94.7231C323.573 94.6473 323.551 94.553 323.56 94.4592V94.4852C323.544 94.5831 323.563 94.6841 323.613 94.766C323.663 94.8478 323.739 94.9039 323.825 94.9217C323.911 94.9396 323.999 94.9178 324.071 94.8612C324.143 94.8046 324.192 94.7178 324.208 94.6199V94.5938C324.187 94.6863 324.136 94.7662 324.065 94.817C323.994 94.8679 323.909 94.886 323.827 94.8674Z" fill="#72351C"/>
<path d="M324.269 93.4035C324.185 93.4037 324.105 93.368 324.045 93.3035C323.984 93.2389 323.947 93.1505 323.941 93.056C323.941 93.056 323.941 93.056 323.941 93.082C323.941 93.1811 323.975 93.2762 324.037 93.3462C324.098 93.4163 324.182 93.4556 324.269 93.4556C324.355 93.4556 324.439 93.4163 324.5 93.3462C324.562 93.2762 324.596 93.1811 324.596 93.082C324.596 93.082 324.596 93.082 324.596 93.056C324.59 93.1505 324.553 93.2389 324.492 93.3035C324.432 93.368 324.352 93.4037 324.269 93.4035Z" fill="#72351C"/>
<path d="M323.811 93.1999C323.812 93.1052 323.845 93.0144 323.902 92.9459C323.959 92.8774 324.037 92.8362 324.12 92.8307H324.097C324.01 92.8307 323.927 92.87 323.865 92.9401C323.804 93.0101 323.77 93.1052 323.77 93.2042C323.77 93.3033 323.804 93.3983 323.865 93.4683C323.927 93.5384 324.01 93.5777 324.097 93.5777H324.12C324.036 93.5722 323.957 93.5298 323.899 93.4594C323.842 93.389 323.81 93.296 323.811 93.1999Z" fill="#72351C"/>
<path opacity="0.1" d="M324.143 96.7309C324.177 96.9156 324.177 97.1065 324.143 97.2912C324.143 97.2912 324.097 97.782 324.17 97.8645" fill="black"/>
<path opacity="0.1" d="M321.926 96.8218C321.96 97.0065 321.96 97.1974 321.926 97.3821C321.926 97.3821 321.88 97.8728 321.952 97.9554" fill="black"/>
<path opacity="0.1" d="M321.907 98.8501C321.977 98.8782 322.054 98.8782 322.124 98.8501C322.21 98.8207 322.301 98.8207 322.387 98.8501" fill="black"/>
<path opacity="0.1" d="M322.017 98.1253C322.276 98.1401 322.536 98.0943 322.779 97.9907C322.779 97.9907 323.708 98.2512 323.975 98.0645" fill="black"/>
<path d="M321.758 102.595H321.503C321.415 102.595 321.343 102.676 321.343 102.777V102.816C321.343 102.917 321.415 102.998 321.503 102.998H321.758C321.847 102.998 321.918 102.917 321.918 102.816V102.777C321.918 102.676 321.847 102.595 321.758 102.595Z" fill="#FDB797"/>
<path d="M321.343 102.699H321.651L321.918 102.747H321.823L321.343 102.699Z" fill="#F0E4E4"/>
<path d="M323.411 101.013H323.72L323.987 101.044H323.891L323.411 101.013Z" fill="#F0E4E4"/>
<path d="M323.411 101.087H323.72L323.987 101.117H323.891L323.411 101.087Z" fill="#F0E4E4"/>
<path d="M323.411 101.165H323.72L323.987 101.196H323.891L323.411 101.165Z" fill="#F0E4E4"/>
<path d="M323.411 101.23H323.72L323.987 101.261H323.891L323.411 101.23Z" fill="#F0E4E4"/>
<path d="M321.343 102.985H321.651L321.918 103.02H321.823L321.343 102.985Z" fill="#F0E4E4"/>
<path d="M321.343 102.95H321.651L321.918 102.985H321.823L321.343 102.95Z" fill="#F0E4E4"/>
<path d="M321.343 102.903H321.651L321.918 102.938H321.823L321.343 102.903Z" fill="#F0E4E4"/>
<path d="M321.343 102.877H321.651L321.918 102.911H321.823L321.343 102.877Z" fill="#F0E4E4"/>
<path d="M321.343 102.651H321.651L321.918 102.698H321.823L321.343 102.651Z" fill="#F0E4E4"/>
<path d="M321.343 102.59H321.651L321.918 102.637H321.823L321.343 102.59Z" fill="#F0E4E4"/>
<path opacity="0.1" d="M323.229 93.6859C323.199 94.0035 323.234 94.3246 323.331 94.6241C323.378 94.7688 323.398 94.9229 323.39 95.0769C323.383 95.2308 323.347 95.3813 323.286 95.5188C323.326 95.5301 323.368 95.53 323.409 95.5187C323.449 95.5073 323.487 95.485 323.518 95.4537C323.583 95.388 323.64 95.3119 323.686 95.2278C323.735 95.1592 323.77 95.0791 323.789 94.9933C323.796 94.8587 323.778 94.7238 323.735 94.598C323.684 94.3667 323.647 94.1316 323.625 93.8944C323.625 93.751 323.625 93.3341 323.484 93.295C323.343 93.2559 323.255 93.5643 323.229 93.6859Z" fill="black"/>
<path d="M323.248 93.6773C323.218 93.9949 323.253 94.316 323.35 94.6155C323.399 94.7611 323.42 94.9166 323.413 95.0722C323.406 95.2277 323.37 95.3799 323.309 95.5189C323.349 95.5301 323.391 95.5301 323.432 95.5187C323.472 95.5074 323.51 95.4851 323.541 95.4537C323.606 95.388 323.663 95.3119 323.709 95.2279C323.757 95.1592 323.793 95.0792 323.811 94.9933C323.819 94.8587 323.801 94.7239 323.758 94.5981C323.707 94.3668 323.67 94.1317 323.648 93.8945C323.648 93.7512 323.648 93.3342 323.507 93.2951C323.366 93.256 323.286 93.5557 323.248 93.6773Z" fill="#72351C"/>
<path opacity="0.1" d="M322.928 93.8985C322.989 93.9723 323.004 94.0852 323.057 94.1721C323.105 94.2313 323.165 94.2773 323.231 94.3067C323.297 94.336 323.368 94.3479 323.438 94.3415C323.475 94.3393 323.512 94.3483 323.545 94.3675C323.602 94.411 323.606 94.5065 323.644 94.5717C323.664 94.5967 323.688 94.6168 323.715 94.6305C323.741 94.6442 323.771 94.6513 323.8 94.6513C323.83 94.6513 323.859 94.6442 323.886 94.6305C323.913 94.6168 323.937 94.5967 323.956 94.5717C324.02 94.4675 324.052 94.3424 324.048 94.2155C324.06 94.0711 324.06 93.9256 324.048 93.7812C324.044 93.6093 323.984 93.4451 323.88 93.3208C323.793 93.2479 323.693 93.1989 323.587 93.1774C323.441 93.1188 323.285 93.1053 323.133 93.1384C323.06 93.1662 322.991 93.2057 322.928 93.2556L322.661 93.4598C322.562 93.538 322.379 93.6943 322.558 93.7812C322.688 93.8116 322.832 93.7812 322.928 93.8985Z" fill="black"/>
<path d="M322.947 93.8902C323.008 93.964 323.023 94.0769 323.076 94.1638C323.124 94.223 323.184 94.269 323.25 94.2984C323.316 94.3277 323.387 94.3396 323.457 94.3332C323.494 94.331 323.531 94.34 323.564 94.3593C323.621 94.4027 323.625 94.4982 323.663 94.5634C323.682 94.5884 323.707 94.6085 323.733 94.6222C323.76 94.636 323.79 94.6431 323.819 94.6431C323.848 94.6431 323.878 94.636 323.905 94.6222C323.931 94.6085 323.956 94.5884 323.975 94.5634C324.052 94.4585 324.094 94.3263 324.093 94.1899C324.105 94.0454 324.105 93.9 324.093 93.7555C324.09 93.5836 324.03 93.4195 323.926 93.2951C323.839 93.2223 323.738 93.1732 323.632 93.1518C323.487 93.0931 323.33 93.0796 323.179 93.1127C323.106 93.1405 323.037 93.18 322.973 93.23L322.707 93.4341C322.608 93.5123 322.425 93.6687 322.604 93.7555C322.707 93.7816 322.848 93.7816 322.947 93.8902Z" fill="#72351C"/>
<path d="M323.43 101.013H323.739L324.006 101.044H323.91L323.43 101.013Z" fill="#F0E4E4"/>
<path d="M323.43 101.087H323.739L324.006 101.117H323.91L323.43 101.087Z" fill="#F0E4E4"/>
<path d="M323.43 101.165H323.739L324.006 101.196H323.91L323.43 101.165Z" fill="#F0E4E4"/>
<path d="M323.43 101.23H323.739L324.006 101.261H323.91L323.43 101.23Z" fill="#F0E4E4"/>
<path d="M323.286 105.239H323.594L323.861 105.27H323.766L323.286 105.239Z" fill="#F0E4E4"/>
<path d="M323.286 105.309H323.594L323.861 105.34H323.766L323.286 105.309Z" fill="#F0E4E4"/>
<path d="M323.286 105.383H323.594L323.861 105.413H323.766L323.286 105.383Z" fill="#F0E4E4"/>
<path d="M323.286 105.456H323.594L323.861 105.487H323.766L323.286 105.456Z" fill="#F0E4E4"/>
<path opacity="0.2" d="M150.478 301.723H120.177V282.261H150.478V301.723ZM121.457 300.264H149.19V283.72H121.457V300.264Z" fill="#00B0FF"/>
<path d="M100.01 272.545C101.914 273.813 103.922 274.33 105.998 273.544C106.538 273.337 107.059 273.074 107.556 272.758C126.985 273.227 144.977 273.009 145.674 270.625C146.817 266.673 139.579 247.206 135.926 237.798C137 236.965 137.909 235.883 138.592 234.623C143.667 241.238 153.107 249.773 158.718 250.198C158.718 250.198 166.909 272.38 176.124 268.875C185.339 265.37 186.364 246.693 181.754 244.361L151.038 222.179V185.374C151.972 183.264 152.414 180.916 152.322 178.555C152.322 178.12 152.341 177.686 152.322 177.252L151.297 166.745C151.297 166.745 151.244 166.398 151.103 165.768C148.817 155.644 143.724 148.829 136.543 147.817C136.892 147.089 137.105 146.285 137.168 145.458C137.316 143.495 136.6 141.493 137.004 139.578C137.476 137.345 139.29 135.903 140.779 134.366C143.96 131.047 145.964 126.547 147.899 122.156C149.743 117.974 151.613 113.682 152.09 109.035C152.566 104.388 151.328 99.2278 147.994 96.4915C145.404 94.3589 141.758 93.7987 139.895 90.8452C139.061 89.5161 138.714 87.8787 138.139 86.3846C136.482 82.0803 132.909 79.0269 129.031 77.4329C115.423 71.8474 98.7296 78.2582 90.0477 91.1405C87.2134 95.3449 85.1677 100.157 83.1448 104.931L75.8305 122.169C74.5696 125.136 73.3505 128.841 75.0343 131.521C75.8572 132.824 77.2667 133.632 77.8381 135.104C78.6 137.058 77.6477 139.617 78.7677 141.337C79.3848 142.288 80.4553 142.666 81.3734 143.222C82.6063 144.022 83.6792 145.106 84.5238 146.405L68.4629 160.595C67.3024 161.62 66.3371 162.904 65.6258 164.368C64.9145 165.833 64.4722 167.447 64.3257 169.112L62.7372 187.163C62.2317 189.213 61.9904 191.336 62.021 193.465C61.9638 195.368 62.1581 197.466 62.9924 199.112L63.3429 199.016C63.7238 211.677 64.3867 229.893 65.0419 233.259C65.4229 235.257 67.8267 238.78 71.0648 242.411L69.9219 246.102H70.3029L69.9219 247.262H70.6839C67.4534 260.57 58.6648 270.599 58.6648 270.599C58.6648 270.599 78.9886 271.859 100.01 272.545ZM80.9086 211.052V196.862C82.7829 197.192 84.1658 197.93 84.6077 199.277L80.9086 211.052ZM86.3334 149.298L86.3943 149.402H86.3715L86.3334 149.298Z" fill="url(#paint2_linear_145_2)"/>
<path d="M132.547 181.517C132.547 181.517 133.518 220.876 134.493 225.867C135.469 230.857 149.571 245.842 156.859 246.398C156.859 246.398 164.638 267.463 173.392 264.136C182.147 260.809 183.118 243.071 178.726 240.851L149.571 219.786V177.656L132.547 181.517Z" fill="#FDB797"/>
<path d="M133.278 229.767C133.278 229.767 145.922 260.814 144.463 265.817C143.004 270.821 61.7961 265.817 61.7961 265.817C61.7961 265.817 76.8704 248.631 73.9523 229.767H133.278Z" fill="#565171"/>
<path d="M123.552 137.741C123.552 137.741 121.606 159.362 125.011 164.353C128.417 169.343 111.396 172.11 109.952 172.11C108.509 172.11 92.9353 166.029 90.0172 164.348C87.0991 162.667 84.6838 150.489 84.6838 150.489C84.6838 150.489 99.2705 153.816 103.648 134.418L123.552 137.741Z" fill="#FDB797"/>
<path d="M128.65 82.2806C132.333 83.7921 135.728 86.6934 137.301 90.7805C137.85 92.2008 138.177 93.7557 138.97 95.0196C140.737 97.8341 144.2 98.364 146.661 100.392C149.819 102.998 150.989 107.893 150.55 112.306C150.112 116.719 148.333 120.797 146.585 124.767C144.745 128.941 142.844 133.211 139.823 136.364C138.413 137.836 136.684 139.205 136.234 141.324C135.853 143.144 136.531 145.042 136.387 146.91C136.036 151.518 131.206 153.664 127.171 154.176C125.419 154.398 123.411 154.411 122.177 152.973C121.545 152.235 121.229 151.236 120.825 150.306C119.907 148.189 118.493 146.404 116.739 145.148C114.985 143.891 112.961 143.214 110.89 143.189C108.819 143.165 106.782 143.795 105.006 145.01C103.231 146.225 101.784 147.977 100.829 150.072C99.8838 152.148 99.3314 154.663 97.6095 155.931C94.9733 157.872 91.4495 155.592 89.5104 152.786C87.5714 149.98 86.1581 146.454 83.3885 144.773C82.5162 144.243 81.4838 143.904 80.9162 142.983C79.8533 141.35 80.7562 138.922 80.0362 137.063C79.4914 135.665 78.1542 134.892 77.3695 133.658C75.7695 131.113 76.9276 127.577 78.1314 124.776L85.08 108.402C86.9847 103.867 88.9466 99.2805 91.6362 95.3019C99.8686 83.0624 115.724 76.973 128.65 82.2806Z" fill="#8F5A6A"/>
<path opacity="0.1" d="M110.912 168.231C110.912 168.231 91.9486 168.231 87.0876 148.273L71.1257 162.376C70.0242 163.351 69.108 164.571 68.4328 165.962C67.7576 167.353 67.3375 168.886 67.1981 170.468L65.6743 187.637C65.6743 187.637 63.9715 194.013 65.9181 197.892C65.9181 197.892 86.1086 192.072 86.5848 198.721L72.4972 243.627C72.4972 243.627 94.3791 244.183 100.211 239.748C100.211 239.748 124.036 245.29 129.872 239.192C135.709 233.094 141.541 233.65 136.68 219.791C136.68 219.791 146.406 208.702 142.013 193.179C137.621 177.656 141.77 193.457 141.77 193.457C141.77 193.457 151.251 188.189 150.764 178.212L149.792 168.222C149.792 168.222 149.739 167.892 149.606 167.297C146.642 154.145 138.676 146.883 127.48 151.513C124.208 152.864 120.863 151.318 120.863 151.318C120.863 151.318 124.524 169.356 110.912 168.231Z" fill="black"/>
<path d="M110.912 167.123C110.912 167.123 91.9486 167.123 87.0877 147.165L71.1257 161.268C70.0246 162.243 69.1087 163.462 68.4335 164.852C67.7583 166.242 67.338 167.775 67.1981 169.356L65.6743 186.525C65.6743 186.525 63.9715 192.901 65.9181 196.779C65.9181 196.779 86.1086 190.959 86.5848 197.609L72.4895 242.515C72.4895 242.515 94.3715 243.071 100.204 238.636C100.204 238.636 124.029 244.178 129.865 238.08C135.701 231.982 141.533 232.538 136.672 218.679C136.672 218.679 146.398 207.59 142.006 192.067C137.613 176.544 141.762 192.345 141.762 192.345C141.762 192.345 151.244 187.076 150.756 177.1L149.785 167.11C149.785 167.11 149.731 166.78 149.598 166.185C146.634 153.033 138.669 145.771 127.472 150.401C124.2 151.752 120.855 150.206 120.855 150.206C120.855 150.206 124.524 168.231 110.912 167.123Z" fill="#B45181"/>
<path d="M65.9333 185.969C65.9333 185.969 66.9048 225.328 67.88 230.319C68.8553 235.309 82.9543 250.277 90.2457 250.833C90.2457 250.833 98.0248 271.898 106.779 268.571C115.533 265.244 116.505 247.506 112.112 245.286L82.9391 224.221V182.09L65.9333 185.969Z" fill="#FDB797"/>
<path opacity="0.1" d="M86.84 187.354C86.84 187.354 75.6667 196.006 65.9334 195.285C65.9334 195.285 64.962 180.427 67.8801 179.597C70.7981 178.768 83.4381 179.597 86.84 187.354Z" fill="black"/>
<path d="M86.84 186.803C86.84 186.803 75.6667 195.455 65.9334 194.73C65.9334 194.73 64.962 179.871 67.8801 179.042C70.7981 178.212 83.4381 179.042 86.84 186.803Z" fill="#B45181"/>
<path opacity="0.1" d="M102.646 135.521L122.581 138.848C122.581 138.848 122.131 143.851 122.044 149.597C118.17 151.459 113.914 152.04 109.765 151.271C105.615 150.503 101.739 148.418 98.5809 145.254C100.25 142.909 101.69 139.755 102.646 135.521Z" fill="black"/>
<path d="M114.314 150.488C126.667 150.488 136.68 139.071 136.68 124.988C136.68 110.905 126.667 99.4885 114.314 99.4885C101.962 99.4885 91.9486 110.905 91.9486 124.988C91.9486 139.071 101.962 150.488 114.314 150.488Z" fill="#FDB797"/>
<path opacity="0.1" d="M108.429 120.089C109.351 120.576 110.402 120.584 111.419 120.576C115.376 120.547 119.329 120.38 123.278 120.076C126.272 119.846 129.465 119.446 131.773 117.262C134.882 114.321 135.373 108.809 133.77 104.583C132.166 100.357 128.893 97.243 125.438 94.8629C123.483 93.4499 121.365 92.355 119.145 91.6097C112.733 89.6248 105.644 92.0441 100.551 96.9303C95.4572 101.817 92.2115 108.822 90.4934 116.141C89.8991 118.673 89.1372 121.687 86.9391 122.456C88.4019 125.232 91.9715 125.67 94.5391 124.28C98.3181 122.23 100.253 114.386 103.648 113.153C107.423 111.793 105.221 118.413 108.429 120.089Z" fill="black"/>
<path d="M108.429 119.533C109.35 120.02 110.402 120.029 111.419 120.02C115.376 119.991 119.329 119.824 123.278 119.52C126.272 119.29 129.465 118.891 131.773 116.706C134.882 113.765 135.373 108.254 133.769 104.028C132.166 99.8015 128.893 96.6874 125.438 94.3072C123.486 92.9029 121.372 91.8153 119.156 91.0757C112.745 89.0908 105.655 91.5101 100.562 96.3964C95.4685 101.283 92.2228 108.288 90.5047 115.607C89.9104 118.139 89.1485 121.154 86.9504 121.922C88.4133 124.698 91.9828 125.136 94.5504 123.746C98.3295 121.696 100.265 113.852 103.659 112.619C107.423 111.242 105.221 117.857 108.429 119.533Z" fill="#8F5A6A"/>
<path opacity="0.1" d="M136.924 218.401C129.629 216.179 122.109 215.06 114.558 215.074L136.924 218.401Z" fill="black"/>
<path opacity="0.1" d="M86.84 188.467C86.84 188.467 94.1352 194.547 92.1733 197.891L86.84 188.467Z" fill="black"/>
<g opacity="0.7">
<path opacity="0.7" d="M288.459 251.323H49.7162V275.12H63.6133V279.768V350.004H275.057V279.768V275.12H288.459V251.323Z" fill="url(#paint3_linear_145_2)"/>
</g>
<path d="M272.897 265.183H65.762V350.004H272.897V265.183Z" fill="#E0E0E0"/>
<path opacity="0.1" d="M272.897 269.618H65.762V282.921H272.897V269.618Z" fill="black"/>
<path d="M286.029 255.758H52.1466V278.487H286.029V255.758Z" fill="#E0E0E0"/>
<path d="M138.596 250.164H98.8134C97.4458 250.164 96.3372 251.428 96.3372 252.987V254.546C96.3372 256.105 97.4458 257.369 98.8134 257.369H138.596C139.964 257.369 141.072 256.105 141.072 254.546V252.987C141.072 251.428 139.964 250.164 138.596 250.164Z" fill="#535461"/>
<g opacity="0.7">
<path opacity="0.7" d="M223.994 169.812H134.314C128.377 169.812 123.564 175.3 123.564 182.069V245.204C123.564 251.973 128.377 257.461 134.314 257.461H223.994C229.932 257.461 234.745 251.973 234.745 245.204V182.069C234.745 175.3 229.932 169.812 223.994 169.812Z" fill="url(#paint4_linear_145_2)"/>
</g>
<path d="M220.646 171.432H135.773C130.126 171.432 125.549 176.651 125.549 183.089V245.803C125.549 252.241 130.126 257.461 135.773 257.461H220.646C226.293 257.461 230.87 252.241 230.87 245.803V183.089C230.87 176.651 226.293 171.432 220.646 171.432Z" fill="#3E3F49"/>
<path d="M222.105 171.432H137.232C131.585 171.432 127.008 176.651 127.008 183.089V245.803C127.008 252.241 131.585 257.461 137.232 257.461H222.105C227.752 257.461 232.329 252.241 232.329 245.803V183.089C232.329 176.651 227.752 171.432 222.105 171.432Z" fill="#535461"/>
<path d="M184.589 217.732C186.467 217.732 187.99 215.996 187.99 213.854C187.99 211.711 186.467 209.975 184.589 209.975C182.71 209.975 181.187 211.711 181.187 213.854C181.187 215.996 182.71 217.732 184.589 217.732Z" fill="#E0E0E0"/>
<defs>
<linearGradient id="paint0_linear_145_2" x1="289.366" y1="158.25" x2="289.366" y2="8.85179" gradientUnits="userSpaceOnUse">
<stop stop-color="#808080" stop-opacity="0.25"/>
<stop offset="0.54" stop-color="#808080" stop-opacity="0.12"/>
<stop offset="1" stop-color="#808080" stop-opacity="0.1"/>
</linearGradient>
<linearGradient id="paint1_linear_145_2" x1="5240.05" y1="5065.8" x2="5240.05" y2="4425.44" gradientUnits="userSpaceOnUse">
<stop stop-color="#808080" stop-opacity="0.25"/>
<stop offset="0.54" stop-color="#808080" stop-opacity="0.12"/>
<stop offset="1" stop-color="#808080" stop-opacity="0.1"/>
</linearGradient>
<linearGradient id="paint2_linear_145_2" x1="-66722.2" y1="134613" x2="-66722.2" y2="43866.7" gradientUnits="userSpaceOnUse">
<stop stop-color="#808080" stop-opacity="0.25"/>
<stop offset="0.54" stop-color="#808080" stop-opacity="0.12"/>
<stop offset="1" stop-color="#808080" stop-opacity="0.1"/>
</linearGradient>
<linearGradient id="paint3_linear_145_2" x1="105390" y1="79771.3" x2="105390" y2="57352" gradientUnits="userSpaceOnUse">
<stop stop-color="#808080" stop-opacity="0.25"/>
<stop offset="0.54" stop-color="#808080" stop-opacity="0.12"/>
<stop offset="1" stop-color="#808080" stop-opacity="0.1"/>
</linearGradient>
<linearGradient id="paint4_linear_145_2" x1="52118.5" y1="52125.4" x2="52118.5" y2="34437.8" gradientUnits="userSpaceOnUse">
<stop stop-color="#808080" stop-opacity="0.25"/>
<stop offset="0.54" stop-color="#808080" stop-opacity="0.12"/>
<stop offset="1" stop-color="#808080" stop-opacity="0.1"/>
</linearGradient>
</defs>
</svg>
